<?xml version="1.0" standalone="no"?>
<svg viewBox="0 0 20 20" version="1.1" xmlns="http://www.w3.org/2000/svg" xmlns:xlink="http://www.w3.org/1999/xlink" xml:space="preserve" width="200px" height="200px">
  <rect x="0" y="0" style="fill: #008787;" width="1" height="1" />
  <rect x="0" y="1" style="fill: #008787;" width="1" height="1" />
  <rect x="0" y="2" style="fill: #ffffaf;" width="1" height="1" />
  <rect x="0" y="3" style="fill: #ffffaf;" width="1" height="1" />
  <rect x="0" y="4" style="fill: #d787af;" width="1" height="1" />
  <rect x="0" y="5" style="fill: #d787af;" width="1" height="1" />
  <rect x="0" y="6" style="fill: #afffff;" width="1" height="1" />
  <rect x="0" y="7" style="fill: #afffff;" width="1" height="1" />
  <rect x="0" y="8" style="fill: #ffaf87;" width="1" height="1" />
  <rect x="0" y="9" style="fill: #ffaf87;" width="1" height="1" />
  <rect x="0" y="10" style="fill: #8787ff;" width="1" height="1" />
  <rect x="0" y="11" style="fill: #8787ff;" width="1" height="1" />
  <rect x="0" y="12" style="fill: #ffff87;" width="1" height="1" />
  <rect x="0" y="13" style="fill: #ffff87;" width="1" height="1" />
  <rect x="0" y="14" style="fill: #ff87d7;" width="1" height="1" />
  <rect x="0" y="15" style="fill: #ff87d7;" width="1" height="1" />
  <rect x="0" y="16" style="fill: #5faf87;" width="1" height="1" />
  <rect x="0" y="17" style="fill: #5faf87;" width="1" height="1" />
  <rect x="0" y="18" style="fill: #af875f;" width="1" height="1" />
  <rect x="0" y="19" style="fill: #af875f;" width="1" height="1" />
  <rect x="1" y="0" style="fill: #008787;" width="1" height="1" />
  <rect x="1" y="1" style="fill: #008787;" width="1" height="1" />
  <rect x="1" y="2" style="fill: #ffffaf;" width="1" height="1" />
  <rect x="1" y="3" style="fill: #ffffaf;" width="1" height="1" />
  <rect x="1" y="4" style="fill: #d787af;" width="1" height="1" />
  <rect x="1" y="5" style="fill: #d787af;" width="1" height="1" />
  <rect x="1" y="6" style="fill: #afffff;" width="1" height="1" />
  <rect x="1" y="7" style="fill: #afffff;" width="1" height="1" />
  <rect x="1" y="8" style="fill: #ffaf87;" width="1" height="1" />
  <rect x="1" y="9" style="fill: #ffaf87;" width="1" height="1" />
  <rect x="1" y="10" style="fill: #8787ff;" width="1" height="1" />
  <rect x="1" y="11" style="fill: #8787ff;" width="1" height="1" />
  <rect x="1" y="12" style="fill: #ffff87;" width="1" height="1" />
  <rect x="1" y="13" style="fill: #ffff87;" width="1" height="1" />
  <rect x="1" y="14" style="fill: #ff87d7;" width="1" height="1" />
  <rect x="1" y="15" style="fill: #ff87d7;" width="1" height="1" />
  <rect x="1" y="16" style="fill: #5faf87;" width="1" height="1" />
  <rect x="1" y="17" style="fill: #5faf87;" width="1" height="1" />
  <rect x="1" y="18" style="fill: #af875f;" width="1" height="1" />
  <rect x="1" y="19" style="fill: #af875f;" width="1" height="1" />
  <rect x="2" y="0" style="fill: #008787;" width="1" height="1" />
  <rect x="2" y="1" style="fill: #008787;" width="1" height="1" />
  <rect x="2" y="2" style="fill: #ffffaf;" width="1" height="1" />
  <rect x="2" y="3" style="fill: #ffffaf;" width="1" height="1" />
  <rect x="2" y="4" style="fill: #d787af;" width="1" height="1" />
  <rect x="2" y="5" style="fill: #d787af;" width="1" height="1" />
  <rect x="2" y="6" style="fill: #afffff;" width="1" height="1" />
  <rect x="2" y="7" style="fill: #ff0000;" width="1" height="1" />
  <rect x="2" y="8" style="fill: #ff0000;" width="1" height="1" />
  <rect x="2" y="9" style="fill: #ff0000;" width="1" height="1" />
  <rect x="2" y="10" style="fill: #ff0000;" width="1" height="1" />
  <rect x="2" y="11" style="fill: #ff0000;" width="1" height="1" />
  <rect x="2" y="12" style="fill: #ff0000;" width="1" height="1" />
  <rect x="2" y="13" style="fill: #ffff87;" width="1" height="1" />
  <rect x="2" y="14" style="fill: #ff87d7;" width="1" height="1" />
  <rect x="2" y="15" style="fill: #ff87d7;" width="1" height="1" />
  <rect x="2" y="16" style="fill: #5faf87;" width="1" height="1" />
  <rect x="2" y="17" style="fill: #5faf87;" width="1" height="1" />
  <rect x="2" y="18" style="fill: #af875f;" width="1" height="1" />
  <rect x="2" y="19" style="fill: #af875f;" width="1" height="1" />
  <rect x="3" y="0" style="fill: #008787;" width="1" height="1" />
  <rect x="3" y="1" style="fill: #008787;" width="1" height="1" />
  <rect x="3" y="2" style="fill: #ffffaf;" width="1" height="1" />
  <rect x="3" y="3" style="fill: #ffffaf;" width="1" height="1" />
  <rect x="3" y="4" style="fill: #d787af;" width="1" height="1" />
  <rect x="3" y="5" style="fill: #d787af;" width="1" height="1" />
  <rect x="3" y="6" style="fill: #ff0000;" width="1" height="1" />
  <rect x="3" y="7" style="fill: #ff0000;" width="1" height="1" />
  <rect x="3" y="8" style="fill: #ff0000;" width="1" height="1" />
  <rect x="3" y="9" style="fill: #ff0000;" width="1" height="1" />
  <rect x="3" y="10" style="fill: #ffffff;" width="1" height="1" />
  <rect x="3" y="11" style="fill: #ff0000;" width="1" height="1" />
  <rect x="3" y="12" style="fill: #ff0000;" width="1" height="1" />
  <rect x="3" y="13" style="fill: #ff0000;" width="1" height="1" />
  <rect x="3" y="14" style="fill: #ff87d7;" width="1" height="1" />
  <rect x="3" y="15" style="fill: #ff87d7;" width="1" height="1" />
  <rect x="3" y="16" style="fill: #5faf87;" width="1" height="1" />
  <rect x="3" y="17" style="fill: #5faf87;" width="1" height="1" />
  <rect x="3" y="18" style="fill: #af875f;" width="1" height="1" />
  <rect x="3" y="19" style="fill: #af875f;" width="1" height="1" />
  <rect x="4" y="0" style="fill: #008787;" width="1" height="1" />
  <rect x="4" y="1" style="fill: #008787;" width="1" height="1" />
  <rect x="4" y="2" style="fill: #ffffaf;" width="1" height="1" />
  <rect x="4" y="3" style="fill: #ffffaf;" width="1" height="1" />
  <rect x="4" y="4" style="fill: #d787af;" width="1" height="1" />
  <rect x="4" y="5" style="fill: #ff0000;" width="1" height="1" />
  <rect x="4" y="6" style="fill: #ff0000;" width="1" height="1" />
  <rect x="4" y="7" style="fill: #ffffff;" width="1" height="1" />
  <rect x="4" y="8" style="fill: #ff0000;" width="1" height="1" />
  <rect x="4" y="9" style="fill: #ff0000;" width="1" height="1" />
  <rect x="4" y="10" style="fill: #ff0000;" width="1" height="1" />
  <rect x="4" y="11" style="fill: #ff0000;" width="1" height="1" />
  <rect x="4" y="12" style="fill: #ff0000;" width="1" height="1" />
  <rect x="4" y="13" style="fill: #ff0000;" width="1" height="1" />
  <rect x="4" y="14" style="fill: #ff0000;" width="1" height="1" />
  <rect x="4" y="15" style="fill: #ff87d7;" width="1" height="1" />
  <rect x="4" y="16" style="fill: #5faf87;" width="1" height="1" />
  <rect x="4" y="17" style="fill: #5faf87;" width="1" height="1" />
  <rect x="4" y="18" style="fill: #af875f;" width="1" height="1" />
  <rect x="4" y="19" style="fill: #af875f;" width="1" height="1" />
  <rect x="5" y="0" style="fill: #008787;" width="1" height="1" />
  <rect x="5" y="1" style="fill: #008787;" width="1" height="1" />
  <rect x="5" y="2" style="fill: #ffffaf;" width="1" height="1" />
  <rect x="5" y="3" style="fill: #ffffaf;" width="1" height="1" />
  <rect x="5" y="4" style="fill: #ff0000;" width="1" height="1" />
  <rect x="5" y="5" style="fill: #ff0000;" width="1" height="1" />
  <rect x="5" y="6" style="fill: #ff0000;" width="1" height="1" />
  <rect x="5" y="7" style="fill: #ff0000;" width="1" height="1" />
  <rect x="5" y="8" style="fill: #ff0000;" width="1" height="1" />
  <rect x="5" y="9" style="fill: #ff0000;" width="1" height="1" />
  <rect x="5" y="10" style="fill: #ff0000;" width="1" height="1" />
  <rect x="5" y="11" style="fill: #ffffff;" width="1" height="1" />
  <rect x="5" y="12" style="fill: #ffffff;" width="1" height="1" />
  <rect x="5" y="13" style="fill: #ff0000;" width="1" height="1" />
  <rect x="5" y="14" style="fill: #ff0000;" width="1" height="1" />
  <rect x="5" y="15" style="fill: #ff0000;" width="1" height="1" />
  <rect x="5" y="16" style="fill: #5faf87;" width="1" height="1" />
  <rect x="5" y="17" style="fill: #5faf87;" width="1" height="1" />
  <rect x="5" y="18" style="fill: #af875f;" width="1" height="1" />
  <rect x="5" y="19" style="fill: #af875f;" width="1" height="1" />
  <rect x="6" y="0" style="fill: #008787;" width="1" height="1" />
  <rect x="6" y="1" style="fill: #008787;" width="1" height="1" />
  <rect x="6" y="2" style="fill: #ffffaf;" width="1" height="1" />
  <rect x="6" y="3" style="fill: #ff0000;" width="1" height="1" />
  <rect x="6" y="4" style="fill: #ff0000;" width="1" height="1" />
  <rect x="6" y="5" style="fill: #ffffff;" width="1" height="1" />
  <rect x="6" y="6" style="fill: #ffffff;" width="1" height="1" />
  <rect x="6" y="7" style="fill: #ff0000;" width="1" height="1" />
  <rect x="6" y="8" style="fill: #ff0000;" width="1" height="1" />
  <rect x="6" y="9" style="fill: #ff0000;" width="1" height="1" />
  <rect x="6" y="10" style="fill: #ff0000;" width="1" height="1" />
  <rect x="6" y="11" style="fill: #ffffff;" width="1" height="1" />
  <rect x="6" y="12" style="fill: #ffffff;" width="1" height="1" />
  <rect x="6" y="13" style="fill: #ff0000;" width="1" height="1" />
  <rect x="6" y="14" style="fill: #ffffff;" width="1" height="1" />
  <rect x="6" y="15" style="fill: #ff0000;" width="1" height="1" />
  <rect x="6" y="16" style="fill: #5faf87;" width="1" height="1" />
  <rect x="6" y="17" style="fill: #5faf87;" width="1" height="1" />
  <rect x="6" y="18" style="fill: #af875f;" width="1" height="1" />
  <rect x="6" y="19" style="fill: #af875f;" width="1" height="1" />
  <rect x="7" y="0" style="fill: #008787;" width="1" height="1" />
  <rect x="7" y="1" style="fill: #008787;" width="1" height="1" />
  <rect x="7" y="2" style="fill: #ff0000;" width="1" height="1" />
  <rect x="7" y="3" style="fill: #ff0000;" width="1" height="1" />
  <rect x="7" y="4" style="fill: #ff0000;" width="1" height="1" />
  <rect x="7" y="5" style="fill: #ffffff;" width="1" height="1" />
  <rect x="7" y="6" style="fill: #ffffff;" width="1" height="1" />
  <rect x="7" y="7" style="fill: #ff0000;" width="1" height="1" />
  <rect x="7" y="8" style="fill: #ff0000;" width="1" height="1" />
  <rect x="7" y="9" style="fill: #ffffff;" width="1" height="1" />
  <rect x="7" y="10" style="fill: #ff0000;" width="1" height="1" />
  <rect x="7" y="11" style="fill: #ff0000;" width="1" height="1" />
  <rect x="7" y="12" style="fill: #ff0000;" width="1" height="1" />
  <rect x="7" y="13" style="fill: #ff0000;" width="1" height="1" />
  <rect x="7" y="14" style="fill: #ff0000;" width="1" height="1" />
  <rect x="7" y="15" style="fill: #dadada;" width="1" height="1" />
  <rect x="7" y="16" style="fill: #5faf87;" width="1" height="1" />
  <rect x="7" y="17" style="fill: #5faf87;" width="1" height="1" />
  <rect x="7" y="18" style="fill: #af875f;" width="1" height="1" />
  <rect x="7" y="19" style="fill: #af875f;" width="1" height="1" />
  <rect x="8" y="0" style="fill: #008787;" width="1" height="1" />
  <rect x="8" y="1" style="fill: #ff0000;" width="1" height="1" />
  <rect x="8" y="2" style="fill: #ffffff;" width="1" height="1" />
  <rect x="8" y="3" style="fill: #ff0000;" width="1" height="1" />
  <rect x="8" y="4" style="fill: #ff0000;" width="1" height="1" />
  <rect x="8" y="5" style="fill: #ff0000;" width="1" height="1" />
  <rect x="8" y="6" style="fill: #ff0000;" width="1" height="1" />
  <rect x="8" y="7" style="fill: #ff0000;" width="1" height="1" />
  <rect x="8" y="8" style="fill: #ff0000;" width="1" height="1" />
  <rect x="8" y="9" style="fill: #ff0000;" width="1" height="1" />
  <rect x="8" y="10" style="fill: #ff0000;" width="1" height="1" />
  <rect x="8" y="11" style="fill: #ff0000;" width="1" height="1" />
  <rect x="8" y="12" style="fill: #ff0000;" width="1" height="1" />
  <rect x="8" y="13" style="fill: #ff0000;" width="1" height="1" />
  <rect x="8" y="14" style="fill: #dadada;" width="1" height="1" />
  <rect x="8" y="15" style="fill: #dadada;" width="1" height="1" />
  <rect x="8" y="16" style="fill: #5faf87;" width="1" height="1" />
  <rect x="8" y="17" style="fill: #5faf87;" width="1" height="1" />
  <rect x="8" y="18" style="fill: #af875f;" width="1" height="1" />
  <rect x="8" y="19" style="fill: #af875f;" width="1" height="1" />
  <rect x="9" y="0" style="fill: #008787;" width="1" height="1" />
  <rect x="9" y="1" style="fill: #ff0000;" width="1" height="1" />
  <rect x="9" y="2" style="fill: #ff0000;" width="1" height="1" />
  <rect x="9" y="3" style="fill: #ff0000;" width="1" height="1" />
  <rect x="9" y="4" style="fill: #ff0000;" width="1" height="1" />
  <rect x="9" y="5" style="fill: #ff0000;" width="1" height="1" />
  <rect x="9" y="6" style="fill: #ff0000;" width="1" height="1" />
  <rect x="9" y="7" style="fill: #ff0000;" width="1" height="1" />
  <rect x="9" y="8" style="fill: #ff0000;" width="1" height="1" />
  <rect x="9" y="9" style="fill: #ff0000;" width="1" height="1" />
  <rect x="9" y="10" style="fill: #ff0000;" width="1" height="1" />
  <rect x="9" y="11" style="fill: #ff0000;" width="1" height="1" />
  <rect x="9" y="12" style="fill: #ff0000;" width="1" height="1" />
  <rect x="9" y="13" style="fill: #dadada;" width="1" height="1" />
  <rect x="9" y="14" style="fill: #dadada;" width="1" height="1" />
  <rect x="9" y="15" style="fill: #ffffff;" width="1" height="1" />
  <rect x="9" y="16" style="fill: #5faf87;" width="1" height="1" />
  <rect x="9" y="17" style="fill: #5faf87;" width="1" height="1" />
  <rect x="9" y="18" style="fill: #af875f;" width="1" height="1" />
  <rect x="9" y="19" style="fill: #af875f;" width="1" height="1" />
  <rect x="10" y="0" style="fill: #ff0000;" width="1" height="1" />
  <rect x="10" y="1" style="fill: #ffffff;" width="1" height="1" />
  <rect x="10" y="2" style="fill: #ff0000;" width="1" height="1" />
  <rect x="10" y="3" style="fill: #ff0000;" width="1" height="1" />
  <rect x="10" y="4" style="fill: #ff0000;" width="1" height="1" />
  <rect x="10" y="5" style="fill: #ff0000;" width="1" height="1" />
  <rect x="10" y="6" style="fill: #ff0000;" width="1" height="1" />
  <rect x="10" y="7" style="fill: #ff0000;" width="1" height="1" />
  <rect x="10" y="8" style="fill: #ff0000;" width="1" height="1" />
  <rect x="10" y="9" style="fill: #ffffff;" width="1" height="1" />
  <rect x="10" y="10" style="fill: #ff0000;" width="1" height="1" />
  <rect x="10" y="11" style="fill: #ff0000;" width="1" height="1" />
  <rect x="10" y="12" style="fill: #dadada;" width="1" height="1" />
  <rect x="10" y="13" style="fill: #dadada;" width="1" height="1" />
  <rect x="10" y="14" style="fill: #ffffff;" width="1" height="1" />
  <rect x="10" y="15" style="fill: #ffffff;" width="1" height="1" />
  <rect x="10" y="16" style="fill: #ffffff;" width="1" height="1" />
  <rect x="10" y="17" style="fill: #5faf87;" width="1" height="1" />
  <rect x="10" y="18" style="fill: #af875f;" width="1" height="1" />
  <rect x="10" y="19" style="fill: #af875f;" width="1" height="1" />
  <rect x="11" y="0" style="fill: #ff0000;" width="1" height="1" />
  <rect x="11" y="1" style="fill: #ff0000;" width="1" height="1" />
  <rect x="11" y="2" style="fill: #ff0000;" width="1" height="1" />
  <rect x="11" y="3" style="fill: #ffffff;" width="1" height="1" />
  <rect x="11" y="4" style="fill: #ff0000;" width="1" height="1" />
  <rect x="11" y="5" style="fill: #ff0000;" width="1" height="1" />
  <rect x="11" y="6" style="fill: #ffffff;" width="1" height="1" />
  <rect x="11" y="7" style="fill: #ff0000;" width="1" height="1" />
  <rect x="11" y="8" style="fill: #ff0000;" width="1" height="1" />
  <rect x="11" y="9" style="fill: #ff0000;" width="1" height="1" />
  <rect x="11" y="10" style="fill: #ff0000;" width="1" height="1" />
  <rect x="11" y="11" style="fill: #dadada;" width="1" height="1" />
  <rect x="11" y="12" style="fill: #dadada;" width="1" height="1" />
  <rect x="11" y="13" style="fill: #ffffff;" width="1" height="1" />
  <rect x="11" y="14" style="fill: #ffffff;" width="1" height="1" />
  <rect x="11" y="15" style="fill: #ffffff;" width="1" height="1" />
  <rect x="11" y="16" style="fill: #ffffff;" width="1" height="1" />
  <rect x="11" y="17" style="fill: #ffffff;" width="1" height="1" />
  <rect x="11" y="18" style="fill: #ffffff;" width="1" height="1" />
  <rect x="11" y="19" style="fill: #af875f;" width="1" height="1" />
  <rect x="12" y="0" style="fill: #ffffff;" width="1" height="1" />
  <rect x="12" y="1" style="fill: #ff0000;" width="1" height="1" />
  <rect x="12" y="2" style="fill: #ff0000;" width="1" height="1" />
  <rect x="12" y="3" style="fill: #ff0000;" width="1" height="1" />
  <rect x="12" y="4" style="fill: #ff0000;" width="1" height="1" />
  <rect x="12" y="5" style="fill: #ff0000;" width="1" height="1" />
  <rect x="12" y="6" style="fill: #ff0000;" width="1" height="1" />
  <rect x="12" y="7" style="fill: #ff0000;" width="1" height="1" />
  <rect x="12" y="8" style="fill: #ff0000;" width="1" height="1" />
  <rect x="12" y="9" style="fill: #ff0000;" width="1" height="1" />
  <rect x="12" y="10" style="fill: #dadada;" width="1" height="1" />
  <rect x="12" y="11" style="fill: #dadada;" width="1" height="1" />
  <rect x="12" y="12" style="fill: #ffffff;" width="1" height="1" />
  <rect x="12" y="13" style="fill: #ffffff;" width="1" height="1" />
  <rect x="12" y="14" style="fill: #ffffff;" width="1" height="1" />
  <rect x="12" y="15" style="fill: #ffffff;" width="1" height="1" />
  <rect x="12" y="16" style="fill: #ffffff;" width="1" height="1" />
  <rect x="12" y="17" style="fill: #ffffff;" width="1" height="1" />
  <rect x="12" y="18" style="fill: #ffffff;" width="1" height="1" />
  <rect x="12" y="19" style="fill: #ffffff;" width="1" height="1" />
  <rect x="13" y="0" style="fill: #ffffff;" width="1" height="1" />
  <rect x="13" y="1" style="fill: #ff0000;" width="1" height="1" />
  <rect x="13" y="2" style="fill: #ff0000;" width="1" height="1" />
  <rect x="13" y="3" style="fill: #ff0000;" width="1" height="1" />
  <rect x="13" y="4" style="fill: #ff0000;" width="1" height="1" />
  <rect x="13" y="5" style="fill: #ff0000;" width="1" height="1" />
  <rect x="13" y="6" style="fill: #ff0000;" width="1" height="1" />
  <rect x="13" y="7" style="fill: #ff0000;" width="1" height="1" />
  <rect x="13" y="8" style="fill: #ff0000;" width="1" height="1" />
  <rect x="13" y="9" style="fill: #ff0000;" width="1" height="1" />
  <rect x="13" y="10" style="fill: #dadada;" width="1" height="1" />
  <rect x="13" y="11" style="fill: #ffffff;" width="1" height="1" />
  <rect x="13" y="12" style="fill: #ffffff;" width="1" height="1" />
  <rect x="13" y="13" style="fill: #ffffff;" width="1" height="1" />
  <rect x="13" y="14" style="fill: #ffffff;" width="1" height="1" />
  <rect x="13" y="15" style="fill: #ffffff;" width="1" height="1" />
  <rect x="13" y="16" style="fill: #ffffff;" width="1" height="1" />
  <rect x="13" y="17" style="fill: #ffffff;" width="1" height="1" />
  <rect x="13" y="18" style="fill: #ffffff;" width="1" height="1" />
  <rect x="13" y="19" style="fill: #ffffff;" width="1" height="1" />
  <rect x="14" y="0" style="fill: #ff0000;" width="1" height="1" />
  <rect x="14" y="1" style="fill: #ff0000;" width="1" height="1" />
  <rect x="14" y="2" style="fill: #ff0000;" width="1" height="1" />
  <rect x="14" y="3" style="fill: #ff0000;" width="1" height="1" />
  <rect x="14" y="4" style="fill: #ffffff;" width="1" height="1" />
  <rect x="14" y="5" style="fill: #ffffff;" width="1" height="1" />
  <rect x="14" y="6" style="fill: #ff0000;" width="1" height="1" />
  <rect x="14" y="7" style="fill: #ff0000;" width="1" height="1" />
  <rect x="14" y="8" style="fill: #ff0000;" width="1" height="1" />
  <rect x="14" y="9" style="fill: #dadada;" width="1" height="1" />
  <rect x="14" y="10" style="fill: #dadada;" width="1" height="1" />
  <rect x="14" y="11" style="fill: #ffffff;" width="1" height="1" />
  <rect x="14" y="12" style="fill: #ffffff;" width="1" height="1" />
  <rect x="14" y="13" style="fill: #ffffff;" width="1" height="1" />
  <rect x="14" y="14" style="fill: #ffffff;" width="1" height="1" />
  <rect x="14" y="15" style="fill: #ffffff;" width="1" height="1" />
  <rect x="14" y="16" style="fill: #ffffff;" width="1" height="1" />
  <rect x="14" y="17" style="fill: #ffffff;" width="1" height="1" />
  <rect x="14" y="18" style="fill: #ffffff;" width="1" height="1" />
  <rect x="14" y="19" style="fill: #af875f;" width="1" height="1" />
  <rect x="15" y="0" style="fill: #ff0000;" width="1" height="1" />
  <rect x="15" y="1" style="fill: #ff0000;" width="1" height="1" />
  <rect x="15" y="2" style="fill: #ff0000;" width="1" height="1" />
  <rect x="15" y="3" style="fill: #ff0000;" width="1" height="1" />
  <rect x="15" y="4" style="fill: #ffffff;" width="1" height="1" />
  <rect x="15" y="5" style="fill: #ffffff;" width="1" height="1" />
  <rect x="15" y="6" style="fill: #ff0000;" width="1" height="1" />
  <rect x="15" y="7" style="fill: #ff0000;" width="1" height="1" />
  <rect x="15" y="8" style="fill: #ff0000;" width="1" height="1" />
  <rect x="15" y="9" style="fill: #dadada;" width="1" height="1" />
  <rect x="15" y="10" style="fill: #ffffff;" width="1" height="1" />
  <rect x="15" y="11" style="fill: #ffffff;" width="1" height="1" />
  <rect x="15" y="12" style="fill: #ffffff;" width="1" height="1" />
  <rect x="15" y="13" style="fill: #ffffff;" width="1" height="1" />
  <rect x="15" y="14" style="fill: #ffffff;" width="1" height="1" />
  <rect x="15" y="15" style="fill: #ffffff;" width="1" height="1" />
  <rect x="15" y="16" style="fill: #ffffff;" width="1" height="1" />
  <rect x="15" y="17" style="fill: #ffffff;" width="1" height="1" />
  <rect x="15" y="18" style="fill: #af875f;" width="1" height="1" />
  <rect x="15" y="19" style="fill: #af875f;" width="1" height="1" />
  <rect x="16" y="0" style="fill: #008787;" width="1" height="1" />
  <rect x="16" y="1" style="fill: #ff0000;" width="1" height="1" />
  <rect x="16" y="2" style="fill: #ffffff;" width="1" height="1" />
  <rect x="16" y="3" style="fill: #ff0000;" width="1" height="1" />
  <rect x="16" y="4" style="fill: #ff0000;" width="1" height="1" />
  <rect x="16" y="5" style="fill: #ff0000;" width="1" height="1" />
  <rect x="16" y="6" style="fill: #ff0000;" width="1" height="1" />
  <rect x="16" y="7" style="fill: #ff0000;" width="1" height="1" />
  <rect x="16" y="8" style="fill: #dadada;" width="1" height="1" />
  <rect x="16" y="9" style="fill: #dadada;" width="1" height="1" />
  <rect x="16" y="10" style="fill: #ffffff;" width="1" height="1" />
  <rect x="16" y="11" style="fill: #8787ff;" width="1" height="1" />
  <rect x="16" y="12" style="fill: #ffff87;" width="1" height="1" />
  <rect x="16" y="13" style="fill: #ffff87;" width="1" height="1" />
  <rect x="16" y="14" style="fill: #ff87d7;" width="1" height="1" />
  <rect x="16" y="15" style="fill: #ff87d7;" width="1" height="1" />
  <rect x="16" y="16" style="fill: #5faf87;" width="1" height="1" />
  <rect x="16" y="17" style="fill: #5faf87;" width="1" height="1" />
  <rect x="16" y="18" style="fill: #af875f;" width="1" height="1" />
  <rect x="16" y="19" style="fill: #af875f;" width="1" height="1" />
  <rect x="17" y="0" style="fill: #008787;" width="1" height="1" />
  <rect x="17" y="1" style="fill: #008787;" width="1" height="1" />
  <rect x="17" y="2" style="fill: #ff0000;" width="1" height="1" />
  <rect x="17" y="3" style="fill: #ff0000;" width="1" height="1" />
  <rect x="17" y="4" style="fill: #ff0000;" width="1" height="1" />
  <rect x="17" y="5" style="fill: #ff0000;" width="1" height="1" />
  <rect x="17" y="6" style="fill: #ff0000;" width="1" height="1" />
  <rect x="17" y="7" style="fill: #ff0000;" width="1" height="1" />
  <rect x="17" y="8" style="fill: #dadada;" width="1" height="1" />
  <rect x="17" y="9" style="fill: #ffaf87;" width="1" height="1" />
  <rect x="17" y="10" style="fill: #8787ff;" width="1" height="1" />
  <rect x="17" y="11" style="fill: #8787ff;" width="1" height="1" />
  <rect x="17" y="12" style="fill: #ffff87;" width="1" height="1" />
  <rect x="17" y="13" style="fill: #ffff87;" width="1" height="1" />
  <rect x="17" y="14" style="fill: #ff87d7;" width="1" height="1" />
  <rect x="17" y="15" style="fill: #ff87d7;" width="1" height="1" />
  <rect x="17" y="16" style="fill: #5faf87;" width="1" height="1" />
  <rect x="17" y="17" style="fill: #5faf87;" width="1" height="1" />
  <rect x="17" y="18" style="fill: #af875f;" width="1" height="1" />
  <rect x="17" y="19" style="fill: #af875f;" width="1" height="1" />
  <rect x="18" y="0" style="fill: #008787;" width="1" height="1" />
  <rect x="18" y="1" style="fill: #008787;" width="1" height="1" />
  <rect x="18" y="2" style="fill: #ffffaf;" width="1" height="1" />
  <rect x="18" y="3" style="fill: #ff0000;" width="1" height="1" />
  <rect x="18" y="4" style="fill: #ff0000;" width="1" height="1" />
  <rect x="18" y="5" style="fill: #ff0000;" width="1" height="1" />
  <rect x="18" y="6" style="fill: #ff0000;" width="1" height="1" />
  <rect x="18" y="7" style="fill: #dadada;" width="1" height="1" />
  <rect x="18" y="8" style="fill: #dadada;" width="1" height="1" />
  <rect x="18" y="9" style="fill: #ffaf87;" width="1" height="1" />
  <rect x="18" y="10" style="fill: #8787ff;" width="1" height="1" />
  <rect x="18" y="11" style="fill: #8787ff;" width="1" height="1" />
  <rect x="18" y="12" style="fill: #ffff87;" width="1" height="1" />
  <rect x="18" y="13" style="fill: #ffff87;" width="1" height="1" />
  <rect x="18" y="14" style="fill: #ff87d7;" width="1" height="1" />
  <rect x="18" y="15" style="fill: #ff87d7;" width="1" height="1" />
  <rect x="18" y="16" style="fill: #5faf87;" width="1" height="1" />
  <rect x="18" y="17" style="fill: #5faf87;" width="1" height="1" />
  <rect x="18" y="18" style="fill: #af875f;" width="1" height="1" />
  <rect x="18" y="19" style="fill: #af875f;" width="1" height="1" />
  <rect x="19" y="0" style="fill: #008787;" width="1" height="1" />
  <rect x="19" y="1" style="fill: #008787;" width="1" height="1" />
  <rect x="19" y="2" style="fill: #ffffaf;" width="1" height="1" />
  <rect x="19" y="3" style="fill: #ffffaf;" width="1" height="1" />
  <rect x="19" y="4" style="fill: #d787af;" width="1" height="1" />
  <rect x="19" y="5" style="fill: #d787af;" width="1" height="1" />
  <rect x="19" y="6" style="fill: #afffff;" width="1" height="1" />
  <rect x="19" y="7" style="fill: #afffff;" width="1" height="1" />
  <rect x="19" y="8" style="fill: #ffaf87;" width="1" height="1" />
  <rect x="19" y="9" style="fill: #ffaf87;" width="1" height="1" />
  <rect x="19" y="10" style="fill: #8787ff;" width="1" height="1" />
  <rect x="19" y="11" style="fill: #8787ff;" width="1" height="1" />
  <rect x="19" y="12" style="fill: #ffff87;" width="1" height="1" />
  <rect x="19" y="13" style="fill: #ffff87;" width="1" height="1" />
  <rect x="19" y="14" style="fill: #ff87d7;" width="1" height="1" />
  <rect x="19" y="15" style="fill: #ff87d7;" width="1" height="1" />
  <rect x="19" y="16" style="fill: #5faf87;" width="1" height="1" />
  <rect x="19" y="17" style="fill: #5faf87;" width="1" height="1" />
  <rect x="19" y="18" style="fill: #af875f;" width="1" height="1" />
  <rect x="19" y="19" style="fill: #af875f;" width="1" height="1" />
</svg>
